<mxfile host="app.diagrams.net" agent="Mozilla/5.0 (Windows NT 10.0; Win64; x64) AppleWebKit/537.36 (KHTML, like Gecko) Chrome/134.0.0.0 Safari/537.36" version="26.1.1">
  <diagram name="Page-1" id="6rk4KCseYiT-SziKnowy">
    <mxGraphModel dx="1461" dy="596" grid="0" gridSize="10" guides="1" tooltips="1" connect="1" arrows="1" fold="1" page="1" pageScale="1" pageWidth="850" pageHeight="1100" math="0" shadow="0">
      <root>
        <object label="" id="0">
          <mxCell />
        </object>
        <mxCell id="1" parent="0" />
        <mxCell id="Fme8vbRsqzaGI8FCgmlJ-1" value="Customer" style="shape=umlActor;verticalLabelPosition=bottom;verticalAlign=top;html=1;outlineConnect=0;" vertex="1" parent="1">
          <mxGeometry x="40" y="110" width="30" height="60" as="geometry" />
        </mxCell>
        <mxCell id="Fme8vbRsqzaGI8FCgmlJ-2" value="Operations&amp;nbsp;&lt;div&gt;Department&lt;/div&gt;" style="shape=umlActor;verticalLabelPosition=bottom;verticalAlign=top;html=1;outlineConnect=0;" vertex="1" parent="1">
          <mxGeometry x="40" y="295" width="30" height="60" as="geometry" />
        </mxCell>
        <mxCell id="Fme8vbRsqzaGI8FCgmlJ-3" value="HR&amp;nbsp;&lt;div&gt;Department&lt;/div&gt;" style="shape=umlActor;verticalLabelPosition=bottom;verticalAlign=top;html=1;outlineConnect=0;" vertex="1" parent="1">
          <mxGeometry x="580" y="300" width="30" height="60" as="geometry" />
        </mxCell>
        <mxCell id="Fme8vbRsqzaGI8FCgmlJ-4" value="Marketing&amp;nbsp;&lt;div&gt;Department&lt;/div&gt;" style="shape=umlActor;verticalLabelPosition=bottom;verticalAlign=top;html=1;outlineConnect=0;" vertex="1" parent="1">
          <mxGeometry x="580" y="480" width="30" height="60" as="geometry" />
        </mxCell>
        <mxCell id="Fme8vbRsqzaGI8FCgmlJ-5" value="Browse for Trips" style="ellipse;whiteSpace=wrap;html=1;" vertex="1" parent="1">
          <mxGeometry x="160" y="55" width="120" height="30" as="geometry" />
        </mxCell>
        <mxCell id="Fme8vbRsqzaGI8FCgmlJ-9" value="Make Reservation" style="ellipse;whiteSpace=wrap;html=1;" vertex="1" parent="1">
          <mxGeometry x="160" y="100" width="120" height="30" as="geometry" />
        </mxCell>
        <mxCell id="Fme8vbRsqzaGI8FCgmlJ-12" value="Purchase Ticket" style="ellipse;whiteSpace=wrap;html=1;" vertex="1" parent="1">
          <mxGeometry x="160" y="150" width="120" height="30" as="geometry" />
        </mxCell>
        <mxCell id="Fme8vbRsqzaGI8FCgmlJ-13" value="Change/Cancel&lt;div&gt;Ticket&lt;/div&gt;" style="ellipse;whiteSpace=wrap;html=1;" vertex="1" parent="1">
          <mxGeometry x="160" y="190" width="120" height="30" as="geometry" />
        </mxCell>
        <mxCell id="Fme8vbRsqzaGI8FCgmlJ-14" value="Set Option Date" style="ellipse;whiteSpace=wrap;html=1;" vertex="1" parent="1">
          <mxGeometry x="400" y="160" width="120" height="30" as="geometry" />
        </mxCell>
        <mxCell id="Fme8vbRsqzaGI8FCgmlJ-15" value="Cancel Unpaid Reservations" style="ellipse;whiteSpace=wrap;html=1;" vertex="1" parent="1">
          <mxGeometry x="400" y="230" width="120" height="30" as="geometry" />
        </mxCell>
        <mxCell id="Fme8vbRsqzaGI8FCgmlJ-16" value="Assign Personnel" style="ellipse;whiteSpace=wrap;html=1;" vertex="1" parent="1">
          <mxGeometry x="190" y="280" width="120" height="50" as="geometry" />
        </mxCell>
        <mxCell id="Fme8vbRsqzaGI8FCgmlJ-17" value="Manage Trips" style="ellipse;whiteSpace=wrap;html=1;" vertex="1" parent="1">
          <mxGeometry x="190" y="350" width="120" height="30" as="geometry" />
        </mxCell>
        <mxCell id="Fme8vbRsqzaGI8FCgmlJ-18" value="Run Optimization" style="ellipse;whiteSpace=wrap;html=1;" vertex="1" parent="1">
          <mxGeometry x="410" y="310" width="120" height="30" as="geometry" />
        </mxCell>
        <mxCell id="Fme8vbRsqzaGI8FCgmlJ-19" value="Set Promotion Prices" style="ellipse;whiteSpace=wrap;html=1;" vertex="1" parent="1">
          <mxGeometry x="390" y="520" width="120" height="30" as="geometry" />
        </mxCell>
        <mxCell id="Fme8vbRsqzaGI8FCgmlJ-20" value="Enter Personnel Data" style="ellipse;whiteSpace=wrap;html=1;" vertex="1" parent="1">
          <mxGeometry x="170" y="450" width="120" height="40" as="geometry" />
        </mxCell>
        <mxCell id="Fme8vbRsqzaGI8FCgmlJ-22" style="edgeStyle=orthogonalEdgeStyle;rounded=0;orthogonalLoop=1;jettySize=auto;html=1;exitX=0.5;exitY=0;exitDx=0;exitDy=0;entryX=0.5;entryY=1;entryDx=0;entryDy=0;" edge="1" parent="1" source="Fme8vbRsqzaGI8FCgmlJ-21" target="Fme8vbRsqzaGI8FCgmlJ-20">
          <mxGeometry relative="1" as="geometry" />
        </mxCell>
        <mxCell id="Fme8vbRsqzaGI8FCgmlJ-21" value="Book Normal Trip" style="ellipse;whiteSpace=wrap;html=1;" vertex="1" parent="1">
          <mxGeometry x="100" y="590" width="120" height="30" as="geometry" />
        </mxCell>
        <mxCell id="Fme8vbRsqzaGI8FCgmlJ-24" style="edgeStyle=orthogonalEdgeStyle;rounded=0;orthogonalLoop=1;jettySize=auto;html=1;exitX=0.5;exitY=0;exitDx=0;exitDy=0;entryX=0.5;entryY=1;entryDx=0;entryDy=0;" edge="1" parent="1" source="Fme8vbRsqzaGI8FCgmlJ-23" target="Fme8vbRsqzaGI8FCgmlJ-20">
          <mxGeometry relative="1" as="geometry" />
        </mxCell>
        <mxCell id="Fme8vbRsqzaGI8FCgmlJ-23" value="Book Express Trip" style="ellipse;whiteSpace=wrap;html=1;" vertex="1" parent="1">
          <mxGeometry x="250" y="590" width="120" height="30" as="geometry" />
        </mxCell>
        <mxCell id="Fme8vbRsqzaGI8FCgmlJ-26" value="" style="endArrow=none;html=1;rounded=0;exitX=1;exitY=0;exitDx=0;exitDy=0;entryX=0.5;entryY=0.5;entryDx=0;entryDy=0;entryPerimeter=0;" edge="1" parent="1" source="Fme8vbRsqzaGI8FCgmlJ-20" target="Fme8vbRsqzaGI8FCgmlJ-3">
          <mxGeometry width="50" height="50" relative="1" as="geometry">
            <mxPoint x="400" y="520" as="sourcePoint" />
            <mxPoint x="450" y="470" as="targetPoint" />
          </mxGeometry>
        </mxCell>
        <mxCell id="Fme8vbRsqzaGI8FCgmlJ-27" value="" style="endArrow=none;html=1;rounded=0;exitX=0.606;exitY=0.1;exitDx=0;exitDy=0;exitPerimeter=0;entryX=0.5;entryY=0.5;entryDx=0;entryDy=0;entryPerimeter=0;" edge="1" parent="1" source="Fme8vbRsqzaGI8FCgmlJ-19" target="Fme8vbRsqzaGI8FCgmlJ-4">
          <mxGeometry width="50" height="50" relative="1" as="geometry">
            <mxPoint x="450" y="520" as="sourcePoint" />
            <mxPoint x="500" y="470" as="targetPoint" />
          </mxGeometry>
        </mxCell>
        <mxCell id="Fme8vbRsqzaGI8FCgmlJ-28" value="" style="endArrow=none;html=1;rounded=0;entryX=0;entryY=0.5;entryDx=0;entryDy=0;" edge="1" parent="1" source="Fme8vbRsqzaGI8FCgmlJ-2" target="Fme8vbRsqzaGI8FCgmlJ-16">
          <mxGeometry width="50" height="50" relative="1" as="geometry">
            <mxPoint x="250" y="430" as="sourcePoint" />
            <mxPoint x="300" y="380" as="targetPoint" />
          </mxGeometry>
        </mxCell>
        <mxCell id="Fme8vbRsqzaGI8FCgmlJ-29" value="" style="endArrow=none;html=1;rounded=0;entryX=0;entryY=0.5;entryDx=0;entryDy=0;" edge="1" parent="1" source="Fme8vbRsqzaGI8FCgmlJ-2" target="Fme8vbRsqzaGI8FCgmlJ-17">
          <mxGeometry width="50" height="50" relative="1" as="geometry">
            <mxPoint x="250" y="430" as="sourcePoint" />
            <mxPoint x="300" y="380" as="targetPoint" />
          </mxGeometry>
        </mxCell>
        <mxCell id="Fme8vbRsqzaGI8FCgmlJ-30" value="" style="endArrow=none;html=1;rounded=0;exitX=0.5;exitY=0.5;exitDx=0;exitDy=0;exitPerimeter=0;entryX=0.028;entryY=0.8;entryDx=0;entryDy=0;entryPerimeter=0;" edge="1" parent="1" source="Fme8vbRsqzaGI8FCgmlJ-1" target="Fme8vbRsqzaGI8FCgmlJ-5">
          <mxGeometry width="50" height="50" relative="1" as="geometry">
            <mxPoint x="250" y="240" as="sourcePoint" />
            <mxPoint x="300" y="190" as="targetPoint" />
          </mxGeometry>
        </mxCell>
        <mxCell id="Fme8vbRsqzaGI8FCgmlJ-31" value="" style="endArrow=none;html=1;rounded=0;exitX=0.5;exitY=0.5;exitDx=0;exitDy=0;exitPerimeter=0;entryX=0;entryY=0.5;entryDx=0;entryDy=0;" edge="1" parent="1" source="Fme8vbRsqzaGI8FCgmlJ-1" target="Fme8vbRsqzaGI8FCgmlJ-9">
          <mxGeometry width="50" height="50" relative="1" as="geometry">
            <mxPoint x="250" y="240" as="sourcePoint" />
            <mxPoint x="300" y="190" as="targetPoint" />
          </mxGeometry>
        </mxCell>
        <mxCell id="Fme8vbRsqzaGI8FCgmlJ-32" value="" style="endArrow=none;html=1;rounded=0;exitX=0.5;exitY=0.5;exitDx=0;exitDy=0;exitPerimeter=0;entryX=0;entryY=0.5;entryDx=0;entryDy=0;" edge="1" parent="1" source="Fme8vbRsqzaGI8FCgmlJ-1" target="Fme8vbRsqzaGI8FCgmlJ-12">
          <mxGeometry width="50" height="50" relative="1" as="geometry">
            <mxPoint x="250" y="240" as="sourcePoint" />
            <mxPoint x="300" y="190" as="targetPoint" />
          </mxGeometry>
        </mxCell>
        <mxCell id="Fme8vbRsqzaGI8FCgmlJ-33" value="" style="endArrow=none;html=1;rounded=0;exitX=0.5;exitY=0.5;exitDx=0;exitDy=0;exitPerimeter=0;entryX=0;entryY=0.5;entryDx=0;entryDy=0;" edge="1" parent="1" source="Fme8vbRsqzaGI8FCgmlJ-1" target="Fme8vbRsqzaGI8FCgmlJ-13">
          <mxGeometry width="50" height="50" relative="1" as="geometry">
            <mxPoint x="250" y="240" as="sourcePoint" />
            <mxPoint x="300" y="190" as="targetPoint" />
          </mxGeometry>
        </mxCell>
        <mxCell id="Fme8vbRsqzaGI8FCgmlJ-34" value="" style="html=1;labelBackgroundColor=#ffffff;startArrow=none;startFill=0;startSize=6;endArrow=classic;endFill=1;endSize=6;jettySize=auto;orthogonalLoop=1;strokeWidth=1;dashed=1;fontSize=14;rounded=0;exitX=0.994;exitY=0.38;exitDx=0;exitDy=0;exitPerimeter=0;entryX=0.083;entryY=0.322;entryDx=0;entryDy=0;entryPerimeter=0;" edge="1" parent="1" source="Fme8vbRsqzaGI8FCgmlJ-16" target="Fme8vbRsqzaGI8FCgmlJ-18">
          <mxGeometry width="60" height="60" relative="1" as="geometry">
            <mxPoint x="280" y="240" as="sourcePoint" />
            <mxPoint x="340" y="180" as="targetPoint" />
          </mxGeometry>
        </mxCell>
        <mxCell id="Fme8vbRsqzaGI8FCgmlJ-35" value="&amp;lt;&amp;lt;extends&amp;gt;&amp;gt;" style="edgeLabel;html=1;align=center;verticalAlign=middle;resizable=0;points=[];" vertex="1" connectable="0" parent="Fme8vbRsqzaGI8FCgmlJ-34">
          <mxGeometry x="-0.0454" y="-4" relative="1" as="geometry">
            <mxPoint as="offset" />
          </mxGeometry>
        </mxCell>
        <mxCell id="Fme8vbRsqzaGI8FCgmlJ-36" value="" style="html=1;labelBackgroundColor=#ffffff;startArrow=none;startFill=0;startSize=6;endArrow=classic;endFill=1;endSize=6;jettySize=auto;orthogonalLoop=1;strokeWidth=1;dashed=1;fontSize=14;rounded=0;exitX=1;exitY=0.5;exitDx=0;exitDy=0;entryX=0;entryY=0.5;entryDx=0;entryDy=0;" edge="1" parent="1" source="Fme8vbRsqzaGI8FCgmlJ-12" target="Fme8vbRsqzaGI8FCgmlJ-14">
          <mxGeometry width="60" height="60" relative="1" as="geometry">
            <mxPoint x="280" y="240" as="sourcePoint" />
            <mxPoint x="340" y="180" as="targetPoint" />
          </mxGeometry>
        </mxCell>
        <mxCell id="Fme8vbRsqzaGI8FCgmlJ-37" value="&amp;lt;&amp;lt;include&amp;gt;&amp;gt;" style="edgeLabel;html=1;align=center;verticalAlign=middle;resizable=0;points=[];" vertex="1" connectable="0" parent="Fme8vbRsqzaGI8FCgmlJ-36">
          <mxGeometry x="-0.1103" y="-1" relative="1" as="geometry">
            <mxPoint as="offset" />
          </mxGeometry>
        </mxCell>
        <mxCell id="Fme8vbRsqzaGI8FCgmlJ-38" value="" style="html=1;labelBackgroundColor=#ffffff;startArrow=none;startFill=0;startSize=6;endArrow=classic;endFill=1;endSize=6;jettySize=auto;orthogonalLoop=1;strokeWidth=1;dashed=1;fontSize=14;rounded=0;exitX=1;exitY=0.5;exitDx=0;exitDy=0;entryX=0;entryY=0;entryDx=0;entryDy=0;" edge="1" parent="1" source="Fme8vbRsqzaGI8FCgmlJ-9" target="Fme8vbRsqzaGI8FCgmlJ-15">
          <mxGeometry width="60" height="60" relative="1" as="geometry">
            <mxPoint x="280" y="240" as="sourcePoint" />
            <mxPoint x="340" y="180" as="targetPoint" />
          </mxGeometry>
        </mxCell>
        <mxCell id="Fme8vbRsqzaGI8FCgmlJ-39" value="&amp;lt;&amp;lt;extend&amp;gt;&amp;gt;" style="edgeLabel;html=1;align=center;verticalAlign=middle;resizable=0;points=[];" vertex="1" connectable="0" parent="Fme8vbRsqzaGI8FCgmlJ-38">
          <mxGeometry x="0.2401" relative="1" as="geometry">
            <mxPoint x="5" y="21" as="offset" />
          </mxGeometry>
        </mxCell>
        <mxCell id="Fme8vbRsqzaGI8FCgmlJ-40" value="" style="html=1;labelBackgroundColor=#ffffff;startArrow=none;startFill=0;startSize=6;endArrow=classic;endFill=1;endSize=6;jettySize=auto;orthogonalLoop=1;strokeWidth=1;dashed=1;fontSize=14;rounded=0;entryX=0.083;entryY=0.167;entryDx=0;entryDy=0;entryPerimeter=0;exitX=1;exitY=0.5;exitDx=0;exitDy=0;" edge="1" parent="1" source="Fme8vbRsqzaGI8FCgmlJ-9" target="Fme8vbRsqzaGI8FCgmlJ-14">
          <mxGeometry width="60" height="60" relative="1" as="geometry">
            <mxPoint x="280" y="240" as="sourcePoint" />
            <mxPoint x="340" y="180" as="targetPoint" />
          </mxGeometry>
        </mxCell>
        <mxCell id="Fme8vbRsqzaGI8FCgmlJ-41" value="&amp;lt;&amp;lt;extend&amp;gt;&amp;gt;" style="edgeLabel;html=1;align=center;verticalAlign=middle;resizable=0;points=[];" vertex="1" connectable="0" parent="Fme8vbRsqzaGI8FCgmlJ-40">
          <mxGeometry x="0.3893" y="3" relative="1" as="geometry">
            <mxPoint as="offset" />
          </mxGeometry>
        </mxCell>
        <mxCell id="Fme8vbRsqzaGI8FCgmlJ-48" value="EasyReserve" style="swimlane;whiteSpace=wrap;html=1;" vertex="1" parent="1">
          <mxGeometry x="90" y="20" width="450" height="640" as="geometry" />
        </mxCell>
      </root>
    </mxGraphModel>
  </diagram>
</mxfile>
